<mxfile host="app.diagrams.net" modified="2024-04-25T09:06:45.681Z" agent="Mozilla/5.0 (Windows NT 10.0; Win64; x64) AppleWebKit/537.36 (KHTML, like Gecko) Chrome/124.0.0.0 Safari/537.36" etag="q_Xix9B9PHQhnKNpY1AL" version="24.2.8" type="github">
  <diagram id="C5RBs43oDa-KdzZeNtuy" name="Page-1">
    <mxGraphModel dx="2210" dy="495" grid="1" gridSize="10" guides="1" tooltips="1" connect="1" arrows="1" fold="1" page="1" pageScale="1" pageWidth="827" pageHeight="1169" math="0" shadow="0">
      <root>
        <mxCell id="WIyWlLk6GJQsqaUBKTNV-0" />
        <mxCell id="WIyWlLk6GJQsqaUBKTNV-1" parent="WIyWlLk6GJQsqaUBKTNV-0" />
        <mxCell id="UvdAHwUS-KmyobOxAjv--46" value="end_turn()" style="whiteSpace=wrap;html=1;" vertex="1" parent="WIyWlLk6GJQsqaUBKTNV-1">
          <mxGeometry x="310" y="350" width="480" height="470" as="geometry" />
        </mxCell>
        <mxCell id="WIyWlLk6GJQsqaUBKTNV-2" value="" style="rounded=0;html=1;jettySize=auto;orthogonalLoop=1;fontSize=11;endArrow=block;endFill=0;endSize=8;strokeWidth=1;shadow=0;labelBackgroundColor=none;edgeStyle=orthogonalEdgeStyle;entryX=0.5;entryY=0;entryDx=0;entryDy=0;" parent="WIyWlLk6GJQsqaUBKTNV-1" source="WIyWlLk6GJQsqaUBKTNV-3" target="UvdAHwUS-KmyobOxAjv--0" edge="1">
          <mxGeometry relative="1" as="geometry">
            <mxPoint x="220" y="150" as="targetPoint" />
          </mxGeometry>
        </mxCell>
        <mxCell id="WIyWlLk6GJQsqaUBKTNV-3" value="Start game, initialize values" style="rounded=1;whiteSpace=wrap;html=1;fontSize=12;glass=0;strokeWidth=1;shadow=0;fillColor=#26FF26;" parent="WIyWlLk6GJQsqaUBKTNV-1" vertex="1">
          <mxGeometry x="160" y="50" width="120" height="40" as="geometry" />
        </mxCell>
        <mxCell id="UvdAHwUS-KmyobOxAjv--2" value="" style="edgeStyle=orthogonalEdgeStyle;rounded=0;orthogonalLoop=1;jettySize=auto;html=1;" edge="1" parent="WIyWlLk6GJQsqaUBKTNV-1" source="UvdAHwUS-KmyobOxAjv--0" target="UvdAHwUS-KmyobOxAjv--1">
          <mxGeometry relative="1" as="geometry" />
        </mxCell>
        <mxCell id="UvdAHwUS-KmyobOxAjv--0" value="Select Great Old One, Select Character" style="rounded=1;whiteSpace=wrap;html=1;" vertex="1" parent="WIyWlLk6GJQsqaUBKTNV-1">
          <mxGeometry x="160" y="150" width="120" height="60" as="geometry" />
        </mxCell>
        <mxCell id="UvdAHwUS-KmyobOxAjv--5" value="" style="edgeStyle=orthogonalEdgeStyle;rounded=0;orthogonalLoop=1;jettySize=auto;html=1;" edge="1" parent="WIyWlLk6GJQsqaUBKTNV-1" source="UvdAHwUS-KmyobOxAjv--1" target="UvdAHwUS-KmyobOxAjv--4">
          <mxGeometry relative="1" as="geometry" />
        </mxCell>
        <mxCell id="UvdAHwUS-KmyobOxAjv--1" value="Deal Task Cards, assign initial Items" style="rounded=1;whiteSpace=wrap;html=1;" vertex="1" parent="WIyWlLk6GJQsqaUBKTNV-1">
          <mxGeometry x="160" y="290" width="120" height="60" as="geometry" />
        </mxCell>
        <mxCell id="UvdAHwUS-KmyobOxAjv--43" value="" style="edgeStyle=orthogonalEdgeStyle;rounded=0;orthogonalLoop=1;jettySize=auto;html=1;" edge="1" parent="WIyWlLk6GJQsqaUBKTNV-1" source="UvdAHwUS-KmyobOxAjv--4" target="UvdAHwUS-KmyobOxAjv--42">
          <mxGeometry relative="1" as="geometry" />
        </mxCell>
        <mxCell id="UvdAHwUS-KmyobOxAjv--4" value="Start turn loop for player" style="rounded=1;whiteSpace=wrap;html=1;" vertex="1" parent="WIyWlLk6GJQsqaUBKTNV-1">
          <mxGeometry x="160" y="380" width="120" height="60" as="geometry" />
        </mxCell>
        <mxCell id="UvdAHwUS-KmyobOxAjv--23" value="" style="edgeStyle=orthogonalEdgeStyle;rounded=0;orthogonalLoop=1;jettySize=auto;html=1;entryX=0.5;entryY=0;entryDx=0;entryDy=0;" edge="1" parent="WIyWlLk6GJQsqaUBKTNV-1" source="UvdAHwUS-KmyobOxAjv--6" target="UvdAHwUS-KmyobOxAjv--28">
          <mxGeometry relative="1" as="geometry">
            <mxPoint x="220" y="670" as="targetPoint" />
          </mxGeometry>
        </mxCell>
        <mxCell id="UvdAHwUS-KmyobOxAjv--6" value="Call apply_outcome with relevant objects" style="rounded=1;whiteSpace=wrap;html=1;" vertex="1" parent="WIyWlLk6GJQsqaUBKTNV-1">
          <mxGeometry x="160" y="570" width="120" height="60" as="geometry" />
        </mxCell>
        <mxCell id="UvdAHwUS-KmyobOxAjv--30" value="No" style="edgeStyle=orthogonalEdgeStyle;rounded=0;orthogonalLoop=1;jettySize=auto;html=1;" edge="1" parent="WIyWlLk6GJQsqaUBKTNV-1" source="UvdAHwUS-KmyobOxAjv--28" target="UvdAHwUS-KmyobOxAjv--8">
          <mxGeometry relative="1" as="geometry" />
        </mxCell>
        <mxCell id="UvdAHwUS-KmyobOxAjv--32" value="Yes" style="edgeStyle=orthogonalEdgeStyle;rounded=0;orthogonalLoop=1;jettySize=auto;html=1;" edge="1" parent="WIyWlLk6GJQsqaUBKTNV-1" source="UvdAHwUS-KmyobOxAjv--28" target="UvdAHwUS-KmyobOxAjv--31">
          <mxGeometry relative="1" as="geometry" />
        </mxCell>
        <mxCell id="UvdAHwUS-KmyobOxAjv--28" value="Is the game over?&lt;div&gt;Call check_endgame_condition&lt;/div&gt;" style="rhombus;whiteSpace=wrap;html=1;rounded=1;" vertex="1" parent="WIyWlLk6GJQsqaUBKTNV-1">
          <mxGeometry x="330" y="665" width="100" height="90" as="geometry" />
        </mxCell>
        <mxCell id="UvdAHwUS-KmyobOxAjv--31" value="End Game With appropriate message" style="whiteSpace=wrap;html=1;rounded=1;fillColor=#FF6666;" vertex="1" parent="WIyWlLk6GJQsqaUBKTNV-1">
          <mxGeometry x="-20" y="680" width="120" height="60" as="geometry" />
        </mxCell>
        <mxCell id="UvdAHwUS-KmyobOxAjv--39" value="" style="edgeStyle=orthogonalEdgeStyle;rounded=0;orthogonalLoop=1;jettySize=auto;html=1;" edge="1" parent="WIyWlLk6GJQsqaUBKTNV-1" source="UvdAHwUS-KmyobOxAjv--36" target="UvdAHwUS-KmyobOxAjv--4">
          <mxGeometry relative="1" as="geometry" />
        </mxCell>
        <mxCell id="UvdAHwUS-KmyobOxAjv--44" value="" style="edgeStyle=orthogonalEdgeStyle;rounded=0;orthogonalLoop=1;jettySize=auto;html=1;" edge="1" parent="WIyWlLk6GJQsqaUBKTNV-1" source="UvdAHwUS-KmyobOxAjv--42" target="UvdAHwUS-KmyobOxAjv--6">
          <mxGeometry relative="1" as="geometry" />
        </mxCell>
        <mxCell id="UvdAHwUS-KmyobOxAjv--42" value="Select Task Card and attempt it" style="rounded=1;whiteSpace=wrap;html=1;" vertex="1" parent="WIyWlLk6GJQsqaUBKTNV-1">
          <mxGeometry x="160" y="480" width="120" height="60" as="geometry" />
        </mxCell>
        <mxCell id="UvdAHwUS-KmyobOxAjv--11" value="" style="edgeStyle=orthogonalEdgeStyle;rounded=0;orthogonalLoop=1;jettySize=auto;html=1;" edge="1" parent="WIyWlLk6GJQsqaUBKTNV-1" source="UvdAHwUS-KmyobOxAjv--8" target="UvdAHwUS-KmyobOxAjv--10">
          <mxGeometry relative="1" as="geometry" />
        </mxCell>
        <mxCell id="UvdAHwUS-KmyobOxAjv--8" value="Advance Clock" style="rounded=1;whiteSpace=wrap;html=1;" vertex="1" parent="WIyWlLk6GJQsqaUBKTNV-1">
          <mxGeometry x="490" y="680" width="120" height="60" as="geometry" />
        </mxCell>
        <mxCell id="UvdAHwUS-KmyobOxAjv--49" value="Yes" style="edgeStyle=orthogonalEdgeStyle;rounded=0;orthogonalLoop=1;jettySize=auto;html=1;" edge="1" parent="WIyWlLk6GJQsqaUBKTNV-1">
          <mxGeometry relative="1" as="geometry">
            <mxPoint x="732" y="692" as="sourcePoint" />
            <mxPoint x="718" y="503" as="targetPoint" />
            <Array as="points">
              <mxPoint x="718" y="692" />
            </Array>
          </mxGeometry>
        </mxCell>
        <mxCell id="UvdAHwUS-KmyobOxAjv--52" value="No" style="edgeStyle=orthogonalEdgeStyle;rounded=0;orthogonalLoop=1;jettySize=auto;html=1;exitX=0;exitY=0;exitDx=0;exitDy=0;entryX=0.5;entryY=1;entryDx=0;entryDy=0;" edge="1" parent="WIyWlLk6GJQsqaUBKTNV-1" source="UvdAHwUS-KmyobOxAjv--10" target="UvdAHwUS-KmyobOxAjv--36">
          <mxGeometry relative="1" as="geometry" />
        </mxCell>
        <mxCell id="UvdAHwUS-KmyobOxAjv--10" value="Is it midnight?" style="rhombus;whiteSpace=wrap;html=1;rounded=1;" vertex="1" parent="WIyWlLk6GJQsqaUBKTNV-1">
          <mxGeometry x="650" y="665" width="100" height="90" as="geometry" />
        </mxCell>
        <mxCell id="UvdAHwUS-KmyobOxAjv--53" style="edgeStyle=orthogonalEdgeStyle;rounded=0;orthogonalLoop=1;jettySize=auto;html=1;" edge="1" parent="WIyWlLk6GJQsqaUBKTNV-1">
          <mxGeometry relative="1" as="geometry">
            <mxPoint x="689" y="483" as="sourcePoint" />
            <mxPoint x="616" y="440" as="targetPoint" />
          </mxGeometry>
        </mxCell>
        <mxCell id="UvdAHwUS-KmyobOxAjv--12" value="call add_doom" style="whiteSpace=wrap;html=1;rounded=1;" vertex="1" parent="WIyWlLk6GJQsqaUBKTNV-1">
          <mxGeometry x="663" y="463" width="110" height="40" as="geometry" />
        </mxCell>
        <mxCell id="UvdAHwUS-KmyobOxAjv--36" value="call character.reset()" style="whiteSpace=wrap;html=1;rounded=1;" vertex="1" parent="WIyWlLk6GJQsqaUBKTNV-1">
          <mxGeometry x="530" y="380" width="120" height="60" as="geometry" />
        </mxCell>
      </root>
    </mxGraphModel>
  </diagram>
</mxfile>
